<svg width="23" height="23" viewBox="0 0 23 23" fill="none" xmlns="http://www.w3.org/2000/svg">
<path d="M18.6875 3.83333H14.375V2.875C14.375 1.28992 13.0851 0 11.5 0C9.91492 0 8.625 1.28992 8.625 2.875V3.83333H4.3125C1.93488 3.83333 0 5.76821 0 8.14583V18.6875C0 21.0651 1.93488 23 4.3125 23H18.6875C21.0651 23 23 21.0651 23 18.6875V8.14583C23 5.76821 21.0651 3.83333 18.6875 3.83333ZM9.58333 2.875C9.58333 1.81796 10.443 0.958333 11.5 0.958333C12.557 0.958333 13.4167 1.81796 13.4167 2.875V6.22917C13.4167 6.49271 13.202 6.70833 12.9375 6.70833H10.0625C9.798 6.70833 9.58333 6.49271 9.58333 6.22917V2.875ZM22.0417 18.6875C22.0417 20.5371 20.5371 22.0417 18.6875 22.0417H4.3125C2.46292 22.0417 0.958333 20.5371 0.958333 18.6875V8.14583C0.958333 6.29625 2.46292 4.79167 4.3125 4.79167H8.625V6.22917C8.625 7.02171 9.26996 7.66667 10.0625 7.66667H12.9375C13.73 7.66667 14.375 7.02171 14.375 6.22917V4.79167H18.6875C20.5371 4.79167 22.0417 6.29625 22.0417 8.14583V18.6875ZM11.5 15.3333C13.0851 15.3333 14.375 14.0434 14.375 12.4583C14.375 10.8733 13.0851 9.58333 11.5 9.58333C9.91492 9.58333 8.625 10.8733 8.625 12.4583C8.625 14.0434 9.91492 15.3333 11.5 15.3333ZM11.5 10.5417C12.557 10.5417 13.4167 11.4013 13.4167 12.4583C13.4167 13.5154 12.557 14.375 11.5 14.375C10.443 14.375 9.58333 13.5154 9.58333 12.4583C9.58333 11.4013 10.443 10.5417 11.5 10.5417ZM16.2773 20.01C16.3405 20.2668 16.1843 20.5265 15.9275 20.5898C15.8882 20.5994 15.8499 20.6042 15.8115 20.6042C15.5969 20.6042 15.4014 20.4585 15.3467 20.24C14.9165 18.5073 13.2988 17.25 11.499 17.25C9.69929 17.25 8.08162 18.5073 7.65133 20.24C7.58712 20.4968 7.32646 20.6511 7.07058 20.5898C6.81375 20.5265 6.65754 20.2659 6.72079 20.01C7.25554 17.8557 9.26517 16.2917 11.4981 16.2917C13.731 16.2917 15.7406 17.8557 16.2754 20.01H16.2773Z" fill="black"/>
</svg>
